<svg  xmlns="http://www.w3.org/2000/svg" xmlns:xlink="http://www.w3.org/1999/xlink" viewBox="0 0 12.91 12.91">
  <defs>
    <style>
      .cls-4 {
        fill: #395654;
      }

      .cls-2 {
        stroke: #fff;
        stroke-miterlimit: 10;
        stroke-width: .44px;
      }
    </style>
  </defs>
      <path class="cls-4" d="M12.91,6.45c0,3.56-2.89,6.45-6.45,6.45S0,10.02,0,6.45,2.89,0,6.45,0s6.45,2.89,6.45,6.45"/>
      <path class="cls-2" d="M6.85,9.66c0,.22-.18,.41-.4,.41s-.4-.18-.4-.41,.18-.41,.4-.41,.4,.18,.4,.41ZM4.09,3.46h4.73m-4.73,5.26h4.73m-.85,1.94h-3.03c-.46,0-.83-.39-.83-.86V2.84c0-.47,.38-.86,.83-.86h3.03c.46,0,.83,.39,.83,.86v6.96c0,.47-.38,.86-.83,.86Z"/>
</svg>