<svg xmlns="http://www.w3.org/2000/svg" viewBox="0 0 93.05 37.27">
    <path d="M48.31 10.33c-.22.38-.56.45-.69.45-.2 0-.31-.16-.4-.34-.01-.04-.17-.41-.26-.66l-2.57-7.65c-.11-.35-.3-.58-.56-.74-.1-.06-.24-.19-.24-.35 0-.22.17-.3.51-.3.2 0 .4.03.77.03.4 0 .86-.03 1.09-.03.27 0 .38.11.38.27 0 .35-.61.33-.61.81 0 .34 2.01 6.62 2.17 7.02.02.04.04.08.07.08.07 0 .12-.17.14-.24.12-.38 1.92-6.05 1.92-6.6 0-.71-.55-.71-.55-1.08 0-.14.11-.26.33-.26.19 0 .69.03.88.03.35 0 .64-.03.87-.03s.41.05.41.27c0 .32-.54.35-.54.84 0 .41 2.02 6.61 2.19 6.98.03.06.05.09.05.09.04 0 .09-.1.14-.25.21-.52 1.92-6.39 1.92-6.82 0-.58-.59-.47-.59-.86 0-.14.1-.26.35-.26.17 0 .67.03.87.03.18 0 .56-.01.74-.01.2 0 .31.09.31.25 0 .38-.53.37-.74 1.05l-2.24 7.26c-.12.39-.27.8-.39 1-.22.38-.58.45-.71.45-.18 0-.3-.12-.4-.34-.19-.4-1.99-5.79-2.29-6.69-.02-.07-.05-.13-.08-.13-.04 0-.08.09-.12.24-.24.74-1.87 6.03-2.13 6.47ZM60.74 3.25c1.93 0 3.63 1.44 3.63 3.93s-1.59 3.57-3.51 3.57c-2.19 0-3.59-1.55-3.59-3.7s1.47-3.8 3.48-3.8Zm-2.26 3.49c0 .56.09 1.31.43 1.96.53 1.01 1.41 1.34 2.14 1.34 1.14 0 2.16-.81 2.16-2.61 0-.81-.2-1.62-.53-2.21-.51-.89-1.27-1.33-2.04-1.33-1.2 0-2.16 1.03-2.16 2.84ZM66.63 6.08v3.21c0 .38.19.56.56.71.21.09.58.14.58.37 0 .15-.08.26-.42.26s-.8-.03-1.25-.03c-.37 0-.36.03-.95.03-.32 0-.4-.12-.4-.25 0-.21.23-.27.37-.35.35-.21.42-.42.42-.78V4.83c0-.28-.19-.39-.5-.48-.15-.05-.28-.14-.28-.27 0-.25.26-.29.58-.41.43-.17.71-.32.92-.32.14 0 .24.07.27.27.09.43.1.92.23.92.12 0 .98-1.3 2.32-1.3.57 0 1.17.35 1.17 1.16 0 .57-.33 1.05-.82 1.05-.32 0-.25-.2-.32-.56-.08-.43-.32-.71-.71-.71-.87 0-1.77 1.1-1.77 1.88ZM72.78 10.02c.19.13.45.15.45.36 0 .14-.08.26-.42.26-.23 0-.64-.03-.96-.03-.35 0-.58.03-.95.03-.32 0-.4-.12-.4-.25 0-.21.22-.27.37-.35.35-.21.42-.42.42-.78V1.62c0-.28-.19-.42-.5-.51-.15-.05-.3-.14-.3-.27 0-.24.23-.28.56-.4.63-.25.84-.43 1.06-.43.23 0 .33.12.33.39 0 .34-.06.71-.06 5.12 0 1.15.04 1.18.12 1.18.27 0 2.62-2.06 2.62-2.41 0-.25-.43-.38-.43-.63 0-.2.15-.27.3-.27.28 0 .53.04.82.04s.89-.04 1.06-.04c.22 0 .34.09.34.25 0 .25-.45.38-.79.64-.45.32-1.54 1.47-2.67 2.32-.06.04-.08.06-.08.09 0 .04.04.07.08.08 2.13.79 2.79 2.73 3.71 3.23.05.03.35.17.35.38 0 .08-.04.27-.25.27s-.71-.03-1-.03c-.32 0-.99.04-1.17.04-.2 0-.35-.1-.35-.27 0-.23.38-.33.38-.61s-.35-.82-.95-1.39c-.76-.73-1.45-.92-1.65-.92-.4 0-.46.31-.46 1 0 1.13.07 1.34.42 1.57ZM79.09 7.43c-.13 0-.17.03-.17.13 0 .74.63 2.29 2.4 2.29 1.23 0 1.98-.64 2.37-1.49.07-.12.15-.23.24-.23.08 0 .14.09.14.31 0 .77-.92 2.3-2.99 2.3S77.7 9.25 77.7 7.15s1.42-3.91 3.53-3.91c1.59 0 2.73 1.06 2.73 2.62 0 .38-.15.59-.4.76-.89.59-3.12.76-4.45.8Zm2.05-3.52c-1.3 0-2.28 1.27-2.28 2.62 0 .15.05.25.18.25.7 0 2.73-.17 3.47-.54.22-.12.33-.27.33-.51 0-1.05-.75-1.83-1.7-1.83ZM86.31 6.08v3.21c0 .38.19.56.56.71.21.09.58.14.58.37 0 .15-.08.26-.42.26s-.8-.03-1.25-.03c-.37 0-.36.03-.95.03-.32 0-.4-.12-.4-.25 0-.21.23-.27.37-.35.35-.21.42-.42.42-.78V4.83c0-.28-.19-.39-.5-.48-.15-.05-.28-.14-.28-.27 0-.25.26-.29.58-.41.43-.17.71-.32.92-.32.14 0 .24.07.27.27.09.43.1.92.23.92.12 0 .98-1.3 2.32-1.3.57 0 1.17.35 1.17 1.16 0 .57-.33 1.05-.82 1.05-.32 0-.25-.2-.32-.56-.08-.43-.32-.71-.71-.71-.87 0-1.77 1.1-1.77 1.88ZM45.61 16.03c0 1.15 1.21 1.61 2.7 2.09 1.62.53 3.35 1.17 3.35 3.02S50.14 24 48.14 24c-1.29 0-2.14-.46-2.65-.46-.29 0-.42.15-.65.15-.27 0-.31-.19-.48-1.25-.1-.66-.17-1.17-.17-1.28 0-.12.09-.28.26-.28.28 0 .38.45.86 1.02.52.62 1.48 1.3 2.91 1.3 1.34 0 2.21-.68 2.21-1.75 0-1.29-1.28-1.73-2.63-2.17-1.58-.52-3.36-1.1-3.36-2.9 0-1.6 1.27-2.67 3.09-2.67 1.22 0 1.86.49 2.36.49.27 0 .39-.12.59-.12.36 0 .3.37.52 1.23.21.79.27.97.27 1.1 0 .16-.09.3-.27.3-.25 0-.37-.27-.62-.61-.98-1.33-2.04-1.67-2.84-1.67-1.05 0-1.91.61-1.91 1.6ZM58.78 22.29c0 .36.13.66.43.66.22 0 .28-.08.4-.08.02 0 .11.03.11.2 0 .38-.43.78-.97.78-.78 0-1-.53-1.11-.84-.01-.05-.05-.12-.11-.12-.04 0-.13.09-.2.16-.22.21-.84.86-2.15.86-1.74 0-2.45-1.33-2.45-2.86 0-1.17.12-2.48.12-2.86 0-.4-.09-.53-.23-.67-.17-.16-.56-.22-.56-.49 0-.2.15-.28.45-.32.84-.11 1.13-.24 1.41-.24.24 0 .33.17.33.34 0 .4-.38 1.41-.38 3.91 0 1.21.35 2.4 1.73 2.4 1.24 0 2.06-.83 2.06-2.42v-2.43c0-.4-.09-.66-.45-.84-.17-.09-.38-.19-.38-.39 0-.19.14-.28.38-.32.64-.07 1.16-.25 1.41-.25.17 0 .31.12.31.32 0 .35-.17.69-.17 1.96v3.55ZM64.12 23.91c-1.43 0-2-1.05-2.14-1.05-.1 0-.12.14-.12.44v2.07c0 .47.4.6.62.69.22.09.44.17.44.37 0 .15-.08.26-.42.26-.22 0-.66-.03-1.05-.03s-.71.03-1.08.03c-.32 0-.4-.12-.4-.25 0-.21.22-.27.37-.35.35-.21.41-.42.41-.78v-7.32c0-.29-.19-.39-.5-.48-.14-.05-.27-.14-.27-.27 0-.25.25-.29.58-.41.42-.17.71-.32.92-.32.14 0 .24.07.28.27.08.43.1.92.23.92.14 0 .82-1.3 2.45-1.3 1.73 0 2.84 1.36 2.84 3.59s-1.13 3.91-3.18 3.91Zm-2.27-3.71c0 2.09 1.02 2.98 2.19 2.98s2.1-1.01 2.1-2.99-.88-2.98-2.05-2.98c-1.1 0-2.24.92-2.24 2.99ZM71.69 23.91c-1.43 0-2-1.05-2.14-1.05-.1 0-.12.14-.12.44v2.07c0 .47.4.6.62.69.22.09.44.17.44.37 0 .15-.08.26-.42.26-.22 0-.66-.03-1.05-.03s-.71.03-1.08.03c-.32 0-.4-.12-.4-.25 0-.21.22-.27.37-.35.35-.21.41-.42.41-.78v-7.32c0-.29-.19-.39-.5-.48-.14-.05-.27-.14-.27-.27 0-.25.25-.29.58-.41.42-.17.71-.32.92-.32.14 0 .24.07.28.27.08.43.1.92.23.92.14 0 .82-1.3 2.45-1.3 1.73 0 2.84 1.36 2.84 3.59s-1.13 3.91-3.18 3.91Zm-2.27-3.71c0 2.09 1.02 2.98 2.19 2.98s2.1-1.01 2.1-2.99-.88-2.98-2.05-2.98c-1.1 0-2.24.92-2.24 2.99ZM78.62 16.41c1.93 0 3.63 1.44 3.63 3.93s-1.59 3.57-3.51 3.57c-2.19 0-3.59-1.55-3.59-3.7s1.47-3.8 3.48-3.8Zm-2.26 3.49c0 .56.09 1.31.43 1.96.53 1.01 1.41 1.34 2.14 1.34 1.14 0 2.16-.81 2.16-2.61 0-.81-.2-1.62-.53-2.21-.51-.89-1.27-1.33-2.04-1.33-1.2 0-2.16 1.03-2.16 2.84ZM84.51 19.24v3.21c0 .38.19.56.56.71.21.09.58.14.58.37 0 .15-.08.26-.42.26s-.8-.03-1.25-.03c-.37 0-.36.03-.95.03-.32 0-.4-.12-.4-.25 0-.21.23-.27.37-.35.35-.21.42-.42.42-.78v-4.42c0-.28-.19-.39-.5-.48-.15-.05-.28-.14-.28-.27 0-.25.26-.29.58-.41.43-.17.71-.32.92-.32.14 0 .24.07.27.27.09.43.1.92.23.92.12 0 .98-1.3 2.32-1.3.57 0 1.17.35 1.17 1.16 0 .57-.33 1.05-.82 1.05-.32 0-.25-.2-.32-.56-.08-.43-.32-.71-.71-.71-.87 0-1.77 1.1-1.77 1.88Z"/>
    <path d="M90.17 21.17c0 .8.09 1.85 1.15 1.85.57 0 1.02-.38 1.27-.68.14-.15.2-.25.3-.25.05 0 .15.04.15.22 0 .11-.04.28-.15.46-.27.43-.83 1.13-2.01 1.13-1.09 0-1.83-.71-1.83-2.54 0-.67.1-3.1.1-3.62 0-.25-.05-.32-.22-.35-.67-.07-1.02-.06-1.02-.33 0-.17.09-.27.3-.34.35-.11.72-.26 1-.61.5-.63.49-1.55.85-1.55.17 0 .25.17.25.43 0 .24-.07 1.57-.07 1.62 0 .03 0 .05.06.05.09 0 2.02-.09 2.16-.09.2 0 .35.06.35.31 0 .22-.12.45-.2.53-.04.03-.11.06-.18.06-.14 0-1.93-.08-2.08-.08-.04 0-.09.01-.09.09-.01.21-.07 2.96-.07 3.67ZM48.63 26.86c1.21 0 1.88.49 2.37.49.27 0 .46-.12.66-.12.32 0 .33.36.53 1.23.16.73.25.95.25 1.1 0 .19-.12.3-.27.3-.27 0-.41-.3-.63-.61-.68-.99-1.76-1.69-2.94-1.69-1.98 0-3.21 1.92-3.21 4.19 0 2.52 1.42 4.41 3.66 4.41 1.78 0 2.81-1.18 3.25-2.24.07-.16.17-.33.3-.33.14 0 .18.21.18.35 0 .29-.11.75-.39 1.21-.55.94-1.77 2.01-3.71 2.01-2.86 0-4.58-2.28-4.58-5.05s1.7-5.25 4.53-5.25ZM54.45 33.74c-.13 0-.17.03-.17.13 0 .74.63 2.29 2.4 2.29 1.23 0 1.98-.63 2.37-1.49.07-.12.15-.23.24-.23.08 0 .14.09.14.31 0 .77-.92 2.3-2.99 2.3s-3.38-1.49-3.38-3.59 1.42-3.91 3.53-3.91c1.59 0 2.73 1.06 2.73 2.62 0 .38-.15.59-.4.76-.89.59-3.12.76-4.45.8Zm2.05-3.52c-1.3 0-2.28 1.27-2.28 2.62 0 .15.05.25.18.25.7 0 2.73-.17 3.47-.54.22-.12.33-.27.33-.51 0-1.05-.75-1.83-1.7-1.83ZM66.54 35.75c0 .21.12.43.34.56.26.13.48.17.48.38 0 .16-.1.26-.44.26-.25 0-.35-.03-.74-.03-.35 0-.56.03-.76.03-.24 0-.3-.12-.3-.25 0-.14.12-.36.15-.45.13-.43.34-1.82.34-3.46s-.7-2.37-1.78-2.37-2.14 1.1-2.14 1.75v3.46c0 .38.13.57.35.7.21.12.43.17.43.37 0 .15-.08.26-.42.26s-.54-.03-.89-.03-.57.03-.95.03c-.32 0-.4-.12-.4-.25 0-.21.23-.27.37-.35.35-.21.42-.42.42-.78v-4.42c0-.28-.19-.39-.5-.48-.15-.05-.28-.14-.28-.27 0-.25.26-.29.58-.41.43-.17.71-.32.92-.32.14 0 .24.07.27.27.09.43.1.92.23.92.12 0 1.06-1.3 2.54-1.3s2.41.94 2.41 3c0 1.54-.22 2.75-.22 3.18ZM69.62 34.33c0 .8.09 1.85 1.15 1.85.57 0 1.02-.38 1.27-.68.14-.15.2-.25.3-.25.05 0 .15.04.15.22 0 .11-.04.28-.15.46-.27.43-.83 1.13-2.01 1.13-1.09 0-1.83-.71-1.83-2.54 0-.67.1-3.1.1-3.62 0-.25-.05-.32-.22-.35-.67-.07-1.02-.06-1.02-.33 0-.17.09-.27.3-.34.35-.11.72-.26 1-.61.5-.63.49-1.55.85-1.55.17 0 .25.17.25.43 0 .24-.07 1.57-.07 1.62 0 .03 0 .05.06.05.09 0 2.02-.09 2.16-.09.2 0 .35.06.35.31 0 .22-.12.45-.2.53-.04.03-.11.06-.18.06-.14 0-1.93-.08-2.08-.08-.04 0-.09.01-.09.09-.01.21-.07 2.96-.07 3.67ZM74.6 32.4v3.21c0 .38.19.56.56.71.21.09.58.14.58.37 0 .15-.08.26-.42.26s-.8-.03-1.25-.03c-.37 0-.36.03-.95.03-.32 0-.4-.12-.4-.25 0-.21.23-.27.37-.35.35-.21.42-.42.42-.78v-4.42c0-.28-.19-.39-.5-.48-.15-.05-.28-.14-.28-.27 0-.25.26-.29.58-.41.43-.17.71-.32.92-.32.14 0 .24.07.27.27.09.43.1.92.23.92.12 0 .98-1.3 2.32-1.3.57 0 1.17.35 1.17 1.16 0 .57-.33 1.05-.82 1.05-.32 0-.25-.2-.32-.56-.08-.43-.32-.71-.71-.71-.87 0-1.77 1.1-1.77 1.88ZM79.74 33.74c-.13 0-.17.03-.17.13 0 .74.63 2.29 2.4 2.29 1.23 0 1.98-.63 2.37-1.49.07-.12.15-.23.24-.23.08 0 .14.09.14.31 0 .77-.92 2.3-2.99 2.3s-3.38-1.49-3.38-3.59 1.42-3.91 3.53-3.91c1.59 0 2.73 1.06 2.73 2.62 0 .38-.15.59-.4.76-.89.59-3.12.76-4.45.8Zm2.05-3.52c-1.3 0-2.28 1.27-2.28 2.62 0 .15.05.25.18.25.7 0 2.73-.17 3.47-.54.22-.12.33-.27.33-.51 0-1.05-.75-1.83-1.7-1.83Z"/>
    <path fill="#ff661f" d="M0 .7v36.58h1.08c.04-10.45 8.52-18.92 18.99-18.92s18.95 8.46 18.99 18.92h1.08V.7H0Z"/>
    <path fill="#fff" d="M20.07 18.36c-10.46 0-18.95 8.46-18.99 18.91h37.98c-.04-10.45-8.52-18.92-18.99-18.92Z"/>
</svg>
